<svg width="23" height="23" viewBox="0 0 23 23" fill="none" xmlns="http://www.w3.org/2000/svg">
<path fill-rule="evenodd" clip-rule="evenodd" d="M15.75 9.75C15.75 13.2018 12.9518 16 9.5 16C6.04822 16 3.25 13.2018 3.25 9.75C3.25 6.29822 6.04822 3.5 9.5 3.5C12.9518 3.5 15.75 6.29822 15.75 9.75ZM14.894 17.2653C13.3756 18.3571 11.5129 19 9.5 19C4.39137 19 0.25 14.8586 0.25 9.75C0.25 4.64137 4.39137 0.5 9.5 0.5C14.6086 0.5 18.75 4.64137 18.75 9.75C18.75 11.7629 18.1071 13.6256 17.0153 15.144L18.9926 17.1213L20.5927 18.7214L22.714 20.8427L20.5927 22.964L18.4713 20.8427L16.8713 19.2427L14.894 17.2653Z" fill="black"/>
</svg>
