<svg width="31" height="30" viewBox="0 0 31 30" fill="none" xmlns="http://www.w3.org/2000/svg">
<circle cx="11.5205" cy="9.25" r="4.25" fill='#1BD0C8' stroke='#1BD0C8'/>
<path d="M20.75 26H2.77096C2.60215 22.6667 3.37871 16 7.83548 16H15.4323C19.6865 16 20.75 22.6667 20.75 26Z" fill='#1BD0C8' stroke='#1BD0C8'/>
<path d="M24.0239 16C28.2048 16 29.25 22.6667 29.25 26H23.2567C23.2567 19.8605 21.4113 16.7752 20.25 16H24.0239Z" fill='#1BD0C8' stroke='#1BD0C8'/>
<path d="M24 9.25C24 6.25 21.75 5 20 5C18.6 5 17.5833 5.5 17.25 5.75C19.45 8.35 18.1667 11.5 17.25 12.75C18.05 13.35 19.4167 13.5 20 13.5C21.75 13.5 24 12.25 24 9.25Z" fill='#1BD0C8' stroke='#1BD0C8'/>
</svg>
